<?xml version="1.0" encoding="UTF-8" standalone="no"?>
<svg
   xmlns:dc="http://purl.org/dc/elements/1.1/"
   xmlns:cc="http://creativecommons.org/ns#"
   xmlns:rdf="http://www.w3.org/1999/02/22-rdf-syntax-ns#"
   xmlns:svg="http://www.w3.org/2000/svg"
   xmlns="http://www.w3.org/2000/svg"
   xmlns:sodipodi="http://sodipodi.sourceforge.net/DTD/sodipodi-0.dtd"
   xmlns:inkscape="http://www.inkscape.org/namespaces/inkscape"
   width="145mm"
   height="297mm"
   viewBox="0 0 513.77934 1052.3622"
   id="svg2"
   version="1.1"
   inkscape:version="0.91 r13725"
   sodipodi:docname="rvc_svg.svg">
  <sodipodi:namedview
     pagecolor="#ffffff"
     bordercolor="#666666"
     borderopacity="1"
     objecttolerance="10"
     gridtolerance="10"
     guidetolerance="10"
     inkscape:pageopacity="0"
     inkscape:pageshadow="2"
     inkscape:window-width="1375"
     inkscape:window-height="876"
     id="namedview7"
     showgrid="false"
     inkscape:zoom="0.15857392"
     inkscape:cx="2414.9608"
     inkscape:cy="-164.37704"
     inkscape:window-x="65"
     inkscape:window-y="24"
     inkscape:window-maximized="1"
     inkscape:current-layer="svg2" />
  <defs
     id="defs4" />
  <metadata
     id="metadata7">
    <rdf:RDF>
      <cc:Work
         rdf:about="">
        <dc:format>image/svg+xml</dc:format>
        <dc:type
           rdf:resource="http://purl.org/dc/dcmitype/StillImage" />
        <dc:title></dc:title>
      </cc:Work>
    </rdf:RDF>
  </metadata>
  <g
     id="layer1"
     transform="matrix(6.5772433,0,0,6.5772433,-68.360437,-36.635683)">
    <path
       id="path3470"
       d="m 13.080556,165.30824 c -2.49815,-3.28452 0.489991,-1.01767 0.02723,-2.27437 -0.99294,-2.69649 1.856814,-22.05918 4.405204,-28.34009 0.9763,-2.40625 2.61778,-10.46968 3.64774,-17.91874 1.02996,-7.44906 2.36947,-14.48031 2.97669,-15.625 1.7902,-3.374771 3.19331,-54.704521 1.52357,-55.736471 -1.55979,-0.964 -1.65617,-15.85616 -0.19478,-30.09479 l 0.89805,-8.7499995 0.42956,10.6249995 0.42956,10.625 0.70462,-10.625 0.70462,-10.6249995 0.94251,17.4999995 c 0.51863,9.62965 1.50242,17.68739 2.1875,17.91667 0.68474,0.22916 1.24499,4.58854 1.24499,9.6875 0,10.50255 0.75558,11.1217 7.5,6.14583 2.8905,-2.13254 5.858,-3.125 9.34392,-3.125 4.38305,0 6.30055,1.00209 13.50715,7.05888 4.61941,3.88238 8.469243,8.10113 8.555183,9.375 0.0859,1.27386 0.22656,3.30049 0.3125,4.50362 0.11107,1.555 -0.92803,2.30084 -3.593753,2.57949 -2.97545,0.31103 -4.22076,1.40344 -6.0292,5.28897 -3.01121,6.46971 -2.00843,8.91393 5.28581,12.88396 3.344223,1.82015 6.943723,4.626971 7.998903,6.237371 2.61132,3.98537 10.347509,57.38348 8.699829,60.04948 -20.419277,1.64271 20.765808,2.34372 -71.507407,2.63769 z m 7.427065,-0.61446 c -33.874798,461.13254 -16.9373994,230.56627 0,0 z m 19.20271,0 c -46.6766054,461.13254 -23.338302,230.56627 0,0 z m 12.55061,0.28928 c -2.397,-2.23913 -5.22513,-1.88498 -6.06442,0.75939 6.06442,-0.75939 11.818322,4.83881 6.06442,-0.75939 z m -24.25332,-2.08541 c 1.03125,-0.22762 -1.35938,-0.47912 -5.3125,-0.55887 -3.95313,-0.0797 -7.440038,0.54428 -7.440038,1.07808 0,0.8893 8.292558,0.46524 12.752538,-0.51921 z m 18.38289,-1.17008 c 0.43107,-0.43109 -2.10482,-0.78379 -5.63533,-0.78379 -4.88992,0 -6.26412,0.40386 -5.76855,1.69531 0.48261,1.25766 1.93739,1.46 5.63532,0.78378 2.74163,-0.50134 5.33747,-1.26423 5.76856,-1.6953 z m 32.179613,0.37776 c 0.73478,-0.71873 -1.29054,-1.16155 -5.3125,-1.16155 -3.575003,0 -6.500003,0.52125 -6.500003,1.15835 0,2.6128 9.142063,2.61527 11.812503,0.004 z m -17.594963,0.34322 c 0.33829,-0.54736 -1.60657,-1.00818 -4.32192,-1.02405 -2.95873,-0.0172 -4.30261,0.37384 -3.35381,0.97608 2.04838,1.30019 6.88314,1.33041 7.67573,0.048 z m -29.21754,-2.60898 c 0,-0.60732 -1.15353,-1.40587 -2.56339,-1.77455 -2.36532,-0.61855 -2.51255,-1.36314 -1.90541,-9.63654 0.4317,-5.88274 1.52818,-10.37421 3.18839,-13.06049 3.52985,-5.71142 3.22668,-6.59522 -2.44801,-7.13639 -4.91013,-0.46826 -5.00522,-0.39718 -6.93165,5.1812 -1.86884,5.41163 -5.58927,22.69584 -5.58972,25.96848 -1.5e-4,1.08976 2.45801,1.5625 8.12479,1.5625 4.46875,0 8.125,-0.4969 8.125,-1.10421 z m 24.4839,-1.48617 c 1.26493,-1.0498 2.75188,-1.06053 5.67652,-0.041 4.19304,1.4617 16.089583,1.91498 16.089583,0.61304 0,-0.42259 -1.49565,-3.51634 -3.32366,-6.875 -2.44638,-4.4948 -4.06077,-6.10666 -6.116273,-6.10666 -2.86616,0 -4.31007,-2.12805 -4.31007,-6.35224 0,-1.75414 0.87992,-2.39776 3.27806,-2.39776 2.468553,0 2.963453,-0.38585 2.00409,-1.5625 -0.70068,-0.85938 -1.9948,-3.99051 -2.87581,-6.95809 -1.13181,-3.81233 -2.67239,-5.94919 -5.25012,-7.28219 -2.85469,-1.47621 -3.48387,-2.47779 -2.89248,-4.60441 2.31772,-8.3344 2.31764,-8.34509 -0.0657,-8.25495 -1.27765,0.0483 -3.448,0.57128 -4.823,1.16214 -2.00197,0.86027 -2.08401,1.09179 -0.41182,1.16214 2.70776,0.11393 4.33186,6.99874 2.24433,9.51406 -2.13981,2.57831 -4.95751,2.26348 -4.95751,-0.55392 0,-1.51807 -1.35578,-2.85035 -3.75,-3.68497 -3.75216,-1.30802 -5.19872,-5.39441 -2.5,-7.06231 0.6875,-0.4249 1.25,-1.93466 1.25,-3.35502 0,-2.24176 -0.53084,-2.47631 -4.02344,-1.77779 -4.49664,0.89932 -7.73743,3.25781 -4.47656,3.25781 1.45437,0 2,1.19983 2,4.39792 0,4.83497 -3.13461,7.56609 -7.40282,6.44993 -1.71939,-0.44963 -2.92034,0.38467 -4.24721,2.95055 -2.56638,4.96283 -2.47705,5.08142 3.15003,4.18161 l 5,-0.79953 -0.008,4.84726 c -0.005,2.73258 -1.09171,6.48325 -2.49176,8.59726 -1.60719,2.42676 -2.48644,5.86619 -2.49177,9.74719 -0.0121,8.82276 3.24131,11.39586 14.99107,11.85631 5.42414,0.21256 9.70405,-0.2136 10.7346,-1.06888 z m -9.4839,-26.1204 c 0,-1.67378 0.59964,-2.23066 1.875,-1.74126 1.03125,0.39574 1.875,1.50308 1.875,2.46078 0,0.95768 -0.84375,1.74126 -1.875,1.74126 -1.0317,0 -1.875,-1.10675 -1.875,-2.46078 z m 34.215981,18.39828 c -0.366428,-3.60938 -1.430768,-11.34375 -2.365198,-17.1875 -0.93443,-5.84375 -2.08921,-14.15991 -2.56618,-18.48035 -0.98946,-8.96267 -3.50291,-12.93235 -10.423883,-16.463171 -2.55913,-1.30557 -5.43384,-3.31466 -6.38824,-4.46464 -2.10054,-2.531 -1.7853,-9.13147 0.56296,-11.78705 0.93856,-1.06139 1.9272,-3.05479 2.197,-4.42979 0.36156,-1.84273 1.3814,-2.43813 3.87904,-2.26467 2.57763,0.17901 3.38852,-0.33267 3.38852,-2.13822 0,-1.30545 -0.70313,-2.93812 -1.5625,-3.62815 -0.85938,-0.69004 -4.5344,-3.80596 -8.16673,-6.92428 -3.63232,-3.11833 -7.71896,-5.66968 -9.08143,-5.66968 -1.36247,0 -5.4673,1.6875 -9.12185,3.75 -9.78379,5.52163 -10.61477,5.21864 -11.14199,-4.0625 -0.24841,-4.37287 -0.59776,-0.65807 -0.79349,8.4375 -0.41884,19.46286 -1.83461,35.485231 -3.80305,43.039191 -0.79388,3.04656 -1.23318,6.70281 -0.97621,8.125 0.38461,2.1286 0.83973,1.75699 2.57401,-2.10169 1.15873,-2.57813 2.84703,-4.6875 3.75177,-4.6875 0.90473,0 1.60031,-1.23731 1.54572,-2.74957 -0.12331,-3.41606 4.44299,-5.95674 10.75131,-5.982 3.82604,-0.0153 4.66781,0.45506 5,2.79407 0.33325,2.34647 1.02081,2.72611 4.14944,2.29115 9.62109,-1.3376 11.2254,-0.94394 11.66022,2.86113 0.22562,1.97438 -0.19625,4.19625 -0.9375,4.9375 -2.08326,2.08326 -1.6,4.34918 1.11108,5.20964 1.58148,0.50194 3.42527,3.43106 5.16748,8.20924 1.489793,4.08586 3.195833,7.42884 3.791213,7.42884 0.59538,0 1.08251,1.0871 1.08251,2.41576 0,2.59011 -4.05661,4.56483 -6.400983,3.11593 -0.86284,-0.53327 -1.19994,-0.20943 -0.85601,0.82233 0.31203,0.93612 1.92097,2.02157 3.575413,2.41213 1.92966,0.45554 4.36114,3.03679 6.78232,7.20009 2.07584,3.56948 3.888378,6.49982 4.027868,6.51187 0.13948,0.0125 -0.0462,-2.93124 -0.41263,-6.54061 z M 30.507621,85.452519 c 0,-14.4094 0.39548,-15.07995 7.46946,-12.66462 3.40444,1.1624 4.57918,2.40809 5.42922,5.75712 2.40465,9.47392 0.51656,16.63741 -4.93106,18.70859 -7.6442,2.906321 -7.96762,2.42729 -7.96762,-11.80109 z m 8.4164,7.67876 c 2.26263,-2.89186 2.77616,-7.78292 1.27963,-12.1875 -0.81756,-2.40625 -1.50551,-4.44575 -1.52876,-4.53222 -0.0232,-0.0865 -1.3079,-0.54625 -2.85477,-1.02173 -2.75569,-0.84706 -2.8125,-0.66083 -2.8125,9.21971 0,9.03169 0.24496,10.08424 2.34694,10.08424 1.29082,0 2.89708,-0.70313 3.56946,-1.5625 z m 14.0836,21.562501 c 0,-0.6875 -0.5957,-1.25 -1.32377,-1.25 -0.72807,0 -0.97613,0.5625 -0.55123,1.25 0.4249,0.6875 1.02059,1.25 1.32377,1.25 0.30318,0 0.55123,-0.5625 0.55123,-1.25 z m -4.07134,-4.04674 c 0.16557,-2.198 -0.041,-2.39871 -0.96485,-0.9375 -1.44503,2.28548 -1.53419,3.73424 -0.22982,3.73424 0.5412,0 1.0788,-1.25853 1.19467,-2.79674 z M 29.481091,44.338039 c -0.73295,-0.88315 -1.53922,-4.96128 -1.7917,-9.0625 l -0.45906,-7.45676 -0.23636,7.5625 c -0.14128,4.52045 0.36703,8.16588 1.26365,9.0625 2.00001,2.00001 2.90609,1.9217 1.22347,-0.10574 z"
       style="fill:#0066ff"
       inkscape:connector-curvature="0" />
  </g>
</svg>
